<svg width="120" height="132" viewBox="0 0 120 132" fill="none" xmlns="http://www.w3.org/2000/svg">
<path d="M54.5173 83.8258C56.0901 82.2091 57.2117 80.2067 57.7697 78.0189C58.3278 75.831 58.3028 73.5348 57.6972 71.3597C57.0916 69.1846 55.9266 67.2073 54.3189 65.6253C52.7114 64.0434 50.7174 62.9125 48.5366 62.3458L26.8868 56.8513L11.866 72.0506C11.3183 72.609 10.9253 73.3009 10.7259 74.0581C10.5266 74.8152 10.5276 75.6114 10.7289 76.368C10.9303 77.1247 11.325 77.8156 11.8742 78.3725C12.4233 78.9295 13.1079 79.3333 13.8604 79.5442L42.0523 87.1806C44.2383 87.8069 46.5529 87.8256 48.7486 87.2346C50.9443 86.6437 52.9384 85.4654 54.5173 83.8258Z" fill="url(#paint0_linear_5473_5899)"/>
<path d="M66.8991 28.0093L58.2869 25.5949L30.0926 17.9583L6.59108 41.08C3.52808 44.0997 1.41145 47.9503 0.501018 52.1589C-0.409411 56.3675 -0.074004 60.751 1.46606 64.7711L4.31378 72.1218C4.96914 73.8358 6.02045 75.3697 7.38153 76.5977C8.7426 77.8257 10.3747 78.7129 12.1439 79.1865L15.9877 80.2563C12.926 79.2579 7.94363 76.2606 13.1399 70.9804L52.7318 31.3037C54.6738 29.686 56.9661 28.5456 59.4259 27.9736C61.8857 27.4016 64.4449 27.4139 66.8991 28.0093Z" fill="url(#paint1_linear_5473_5899)"/>
<path d="M105.7 19.0282C105.127 16.882 104.004 14.9231 102.444 13.3458C100.882 11.7685 98.9367 10.6276 96.8006 10.036L62.6278 0.760037C58.9035 -0.249691 54.9789 -0.253396 51.2528 0.749301C47.5266 1.752 44.1315 3.72537 41.4124 6.46897L29.9502 18.0209L23.5439 24.3798C25.486 22.5296 27.8545 21.19 30.4385 20.4803C33.0224 19.7707 35.7415 19.713 38.3531 20.3125L90.2515 34.3704C92.3769 34.9425 94.6149 34.9461 96.7412 34.3807C98.8684 33.8154 100.81 32.7009 102.373 31.1485C103.937 29.5961 105.066 27.6599 105.651 25.5332C106.234 23.4065 106.251 21.1637 105.7 19.0282Z" fill="url(#paint2_linear_5473_5899)"/>
<path d="M65.4785 47.7161C63.9057 49.3328 62.7841 51.3352 62.2261 53.523C61.668 55.7107 61.693 58.0071 62.2986 60.1822C62.9042 62.3571 64.0692 64.3346 65.6768 65.9165C67.2844 67.4984 69.2784 68.6293 71.4591 69.196L93.1023 74.6906L108.123 59.4913C108.671 58.9329 109.064 58.241 109.263 57.4838C109.463 56.7266 109.462 55.9305 109.261 55.1738C109.058 54.4172 108.664 53.7262 108.115 53.1692C107.566 52.6123 106.882 52.2085 106.129 51.9977L77.9367 44.3612C75.7512 43.7441 73.4399 43.7301 71.2471 44.3205C69.0542 44.911 67.0612 46.0841 65.4785 47.7161Z" fill="url(#paint3_linear_5473_5899)"/>
<path d="M118.514 66.9134L115.667 59.5628C115.011 57.8486 113.959 56.3145 112.598 55.0865C111.236 53.8584 109.604 52.9713 107.834 52.4982L103.991 51.4282C107.052 52.4267 112.035 55.4241 106.838 60.7042L67.2552 100.383C65.2784 101.962 62.9701 103.072 60.5039 103.628C58.0377 104.184 55.4778 104.173 53.0166 103.595L61.6311 106.021L89.8232 113.657L113.316 90.5351C116.416 87.5548 118.565 83.7196 119.49 79.5149C120.415 75.3101 120.075 70.9247 118.514 66.9134Z" fill="url(#paint4_linear_5473_5899)"/>
<path d="M14.283 112.513C14.8573 114.661 15.982 116.621 17.5455 118.199C19.1091 119.776 21.057 120.917 23.196 121.506L57.3687 130.781C61.093 131.791 65.0176 131.796 68.7438 130.792C72.4699 129.79 75.865 127.816 78.584 125.073L90.1179 113.512L96.4551 107.16C94.5123 109.01 92.1439 110.349 89.5601 111.059C86.9762 111.768 84.2573 111.826 81.6457 111.227L29.7471 97.241C27.6258 96.6509 25.3868 96.6313 23.2557 97.1851C21.1247 97.7388 19.1769 98.8453 17.6087 100.394C16.0405 101.944 14.9074 103.879 14.3235 106.006C13.7396 108.134 13.7256 110.379 14.283 112.513Z" fill="url(#paint5_linear_5473_5899)"/>
<defs>
<linearGradient id="paint0_linear_5473_5899" x1="43.4642" y1="74.4148" x2="7.71712" y2="50.8035" gradientUnits="userSpaceOnUse">
<stop offset="0.037" stop-color="#E72125"/>
<stop offset="0.217" stop-color="#DE2124"/>
<stop offset="0.515" stop-color="#C41F22"/>
<stop offset="0.894" stop-color="#9B1E1E"/>
<stop offset="1" stop-color="#8E1D1D"/>
</linearGradient>
<linearGradient id="paint1_linear_5473_5899" x1="28.5659" y1="47.4876" x2="47.4956" y2="11.0777" gradientUnits="userSpaceOnUse">
<stop offset="0.037" stop-color="#E72125"/>
<stop offset="0.217" stop-color="#DE2124"/>
<stop offset="0.515" stop-color="#C41F22"/>
<stop offset="0.894" stop-color="#9B1E1E"/>
<stop offset="1" stop-color="#8E1D1D"/>
</linearGradient>
<linearGradient id="paint2_linear_5473_5899" x1="44.2658" y1="12.8071" x2="90.918" y2="65.6116" gradientUnits="userSpaceOnUse">
<stop offset="0.037" stop-color="#E72125"/>
<stop offset="1" stop-color="#8E1D1D"/>
</linearGradient>
<linearGradient id="paint3_linear_5473_5899" x1="105.034" y1="70.563" x2="82.566" y2="38.3606" gradientUnits="userSpaceOnUse">
<stop stop-color="#2C3894"/>
<stop offset="1" stop-color="#54A3DA"/>
</linearGradient>
<linearGradient id="paint4_linear_5473_5899" x1="77.2645" y1="112.288" x2="99.3876" y2="54.8179" gradientUnits="userSpaceOnUse">
<stop stop-color="#2C3894"/>
<stop offset="0.062" stop-color="#31469D"/>
<stop offset="0.238" stop-color="#3E67B3"/>
<stop offset="0.418" stop-color="#4781C4"/>
<stop offset="0.602" stop-color="#4E94D0"/>
<stop offset="0.793" stop-color="#539FD8"/>
<stop offset="1" stop-color="#54A3DA"/>
</linearGradient>
<linearGradient id="paint5_linear_5473_5899" x1="2.89192" y1="107.037" x2="54.7656" y2="154.645" gradientUnits="userSpaceOnUse">
<stop stop-color="#2C3894"/>
<stop offset="0.062" stop-color="#31469D"/>
<stop offset="0.238" stop-color="#3E67B3"/>
<stop offset="0.418" stop-color="#4781C4"/>
<stop offset="0.602" stop-color="#4E94D0"/>
<stop offset="0.793" stop-color="#539FD8"/>
<stop offset="1" stop-color="#54A3DA"/>
</linearGradient>
</defs>
</svg>
