<svg width="605" height="149" viewBox="0 0 605 149" fill="none" xmlns="http://www.w3.org/2000/svg">
<g clip-path="url(#clip0_7985_6373)">
<path d="M62.4271 94.6284C64.2009 92.8094 65.4658 90.5564 66.0951 88.0949C66.7245 85.6333 66.6963 83.0497 66.0133 80.6025C65.3303 78.1553 64.0165 75.9305 62.2034 74.1506C60.3904 72.3708 58.1416 71.0984 55.6822 70.4608L31.2658 64.2788L14.3256 81.3798C13.7079 82.0081 13.2647 82.7866 13.0398 83.6385C12.815 84.4904 12.8161 85.3862 13.0432 86.2375C13.2703 87.0888 13.7155 87.8662 14.3348 88.4928C14.9541 89.1195 15.7262 89.5738 16.5748 89.811L48.3693 98.4029C50.8346 99.1076 53.445 99.1286 55.9213 98.4637C58.3975 97.7989 60.6464 96.4731 62.4271 94.6284Z" fill="url(#paint0_linear_7985_6373)"/>
<path d="M76.3913 31.8281L66.6785 29.1115L34.8814 20.5195L8.37668 46.5342C4.92228 49.9317 2.53517 54.2641 1.5084 58.9993C0.481632 63.7345 0.859899 68.6664 2.59676 73.1896L5.80838 81.46C6.54749 83.3884 7.73314 85.1143 9.26814 86.4959C10.8031 87.8776 12.6438 88.8758 14.6391 89.4086L18.9741 90.6123C15.5212 89.489 9.90207 86.1166 15.7624 80.1758L60.4136 35.5347C62.6037 33.7145 65.189 32.4314 67.9631 31.7879C70.7372 31.1443 73.6234 31.1581 76.3913 31.8281Z" fill="url(#paint1_linear_7985_6373)"/>
<path d="M18.9834 90.5322C19.4302 90.6923 19.8858 90.8266 20.348 90.9343L18.9834 90.5322Z" fill="url(#paint2_linear_7985_6373)"/>
<path d="M120.15 21.7232C119.503 19.3085 118.237 17.1045 116.477 15.3299C114.716 13.5552 112.522 12.2715 110.113 11.6059L71.5733 1.16934C67.3731 0.033276 62.947 0.0291081 58.7447 1.15726C54.5424 2.28542 50.7135 4.50571 47.6469 7.59259L34.72 20.5899L27.4951 27.7444C29.6853 25.6628 32.3565 24.1555 35.2707 23.357C38.1848 22.5586 41.2513 22.4937 44.1966 23.1682L102.727 38.9851C105.124 39.6288 107.648 39.6328 110.046 38.9967C112.445 38.3606 114.635 37.1067 116.398 35.3601C118.161 33.6134 119.435 31.435 120.094 29.0422C120.752 26.6494 120.771 24.1259 120.15 21.7232Z" fill="url(#paint3_linear_7985_6373)"/>
<path d="M74.7881 54.0006C73.0143 55.8196 71.7494 58.0726 71.1201 60.5341C70.4907 62.9956 70.5189 65.5793 71.2019 68.0265C71.8849 70.4736 73.1987 72.6985 75.0118 74.4783C76.8248 76.2582 79.0736 77.5306 81.533 78.1682L105.942 84.3502L122.882 67.2492C123.5 66.6209 123.943 65.8424 124.168 64.9905C124.393 64.1386 124.392 63.2428 124.165 62.3915C123.937 61.5402 123.492 60.7628 122.873 60.1361C122.254 59.5095 121.482 59.0551 120.633 58.818L88.8383 50.226C86.3735 49.5317 83.7669 49.5159 81.2939 50.1802C78.8208 50.8446 76.5731 52.1645 74.7881 54.0006Z" fill="url(#paint4_linear_7985_6373)"/>
<path d="M134.602 75.5999L131.391 67.3297C130.651 65.401 129.465 63.6749 127.93 62.2932C126.394 60.9115 124.553 59.9134 122.557 59.381L118.223 58.1772C121.675 59.3006 127.295 62.673 121.434 68.6138L76.7934 113.257C74.564 115.034 71.9608 116.282 69.1795 116.908C66.3981 117.534 63.5111 117.521 60.7354 116.871L70.4507 119.6L102.245 128.192L128.74 102.177C132.236 98.824 134.659 94.5089 135.703 89.7781C136.746 85.0472 136.363 80.1131 134.602 75.5999Z" fill="url(#paint5_linear_7985_6373)"/>
<path d="M118.223 58.1775C117.776 58.0174 117.32 57.8831 116.858 57.7754L118.223 58.1775Z" fill="url(#paint6_linear_7985_6373)"/>
<path d="M17.0519 126.905C17.6996 129.322 18.968 131.527 20.7314 133.302C22.4947 135.077 24.6916 136.36 27.1039 137.023L65.6434 147.459C69.8436 148.595 74.2697 148.6 78.472 147.471C82.6743 146.343 86.5032 144.123 89.5697 141.036L102.577 128.029L109.724 120.882C107.533 122.963 104.862 124.47 101.948 125.269C99.0343 126.067 95.9679 126.132 93.0226 125.458L34.4921 109.722C32.0998 109.058 29.5746 109.036 27.1712 109.659C24.7679 110.282 22.5712 111.527 20.8026 113.27C19.034 115.013 17.7561 117.191 17.0976 119.584C16.4391 121.978 16.4233 124.504 17.0519 126.905Z" fill="url(#paint7_linear_7985_6373)"/>
<path d="M166.319 45.299C167.817 42.5304 170.073 40.2463 172.823 38.7149C175.693 37.1205 178.934 36.3166 182.216 36.3854C186.179 36.27 190.07 37.4544 193.296 39.7578C196.379 42.0469 198.565 45.3411 199.477 49.071H189.763C189.105 47.6472 188.044 46.4469 186.712 45.6181C184.952 44.6074 182.904 44.2163 180.895 44.5074C178.886 44.7985 177.033 45.7551 175.632 47.224C173.851 49.355 172.934 52.0767 173.063 54.851C172.948 57.6232 173.864 60.34 175.632 62.4779C176.448 63.4115 177.462 64.1491 178.602 64.6355C179.742 65.122 180.978 65.3449 182.216 65.2875C183.799 65.3193 185.358 64.9019 186.712 64.0837C188.065 63.2794 189.131 62.072 189.763 60.6309H199.477C198.576 64.3657 196.388 67.6633 193.296 69.9441C190.07 72.2475 186.179 73.4319 182.216 73.3165C178.936 73.3662 175.7 72.5635 172.823 70.987C170.112 69.4404 167.866 67.1943 166.319 64.4833C164.743 61.5502 163.941 58.2634 163.99 54.9339C163.94 51.5771 164.742 48.2625 166.319 45.299Z" fill="#170F0B"/>
<path d="M212.643 71.0721C209.819 69.5199 207.484 67.2122 205.898 64.4076C204.268 61.4889 203.412 58.2014 203.412 54.8582C203.412 51.515 204.268 48.2275 205.898 45.3088C207.509 42.5445 209.84 40.2691 212.643 38.7247C215.506 37.1056 218.747 36.2748 222.036 36.3172C225.324 36.2849 228.563 37.115 231.43 38.7247C234.215 40.2924 236.54 42.5625 238.175 45.3088C239.829 48.2178 240.687 51.5117 240.663 54.8582C240.726 58.2094 239.865 61.5134 238.175 64.4076C236.53 67.2139 234.168 69.5327 231.333 71.1267C228.497 72.7207 225.289 73.5327 222.036 73.4796C218.749 73.5119 215.51 72.6818 212.643 71.0721ZM229.023 62.4801C230.825 60.3611 231.744 57.6308 231.591 54.8532C231.719 52.0546 230.804 49.3081 229.023 47.1458C228.136 46.1875 227.053 45.4329 225.847 44.9339C224.641 44.435 223.341 44.2036 222.036 44.2558C220.739 44.2004 219.445 44.4223 218.24 44.9068C217.035 45.3913 215.948 46.1272 215.05 47.0654C213.334 49.2678 212.401 51.9803 212.401 54.7728C212.401 57.5652 213.334 60.2777 215.05 62.4801C215.937 63.4383 217.02 64.1928 218.226 64.6918C219.432 65.1907 220.732 65.4221 222.036 65.3701C223.345 65.4593 224.656 65.2451 225.867 64.7442C227.079 64.2434 228.159 63.4694 229.023 62.4827V62.4801Z" fill="#170F0B"/>
<path d="M277.921 73.0803H269.09L254.316 50.7598V73.1607H245.483V36.8704H254.313L269.087 59.3517V36.8704H277.918L277.921 73.0803Z" fill="#170F0B"/>
<path d="M285.229 45.299C286.727 42.5304 288.983 40.2463 291.733 38.7149C294.603 37.1204 297.844 36.3164 301.127 36.3854C305.089 36.27 308.98 37.4544 312.206 39.7578C315.29 42.0468 317.476 45.341 318.388 49.071H308.673C308.015 47.6472 306.954 46.4469 305.622 45.6181C303.862 44.6074 301.814 44.2163 299.805 44.5074C297.796 44.7985 295.943 45.7551 294.542 47.224C292.762 49.3552 291.845 52.0768 291.974 54.851C291.859 57.6232 292.774 60.34 294.542 62.4779C295.358 63.4115 296.373 64.1491 297.513 64.6355C298.653 65.122 299.889 65.3449 301.127 65.2875C302.709 65.3193 304.268 64.9019 305.622 64.0837C306.975 63.2794 308.041 62.072 308.673 60.6309H318.388C317.487 64.3657 315.298 67.6633 312.206 69.9441C308.98 72.2475 305.089 73.4319 301.127 73.3165C297.847 73.3662 294.61 72.5635 291.733 70.987C289.022 69.4404 286.776 67.1943 285.229 64.4833C283.653 61.5501 282.851 58.2633 282.9 54.9339C282.812 51.5729 283.615 48.2485 285.229 45.299Z" fill="#170F0B"/>
<path d="M346.328 66.7375H332.758L330.589 73.1607H321.359L334.527 36.8704H344.73L357.818 73.1607H348.424L346.328 66.7375ZM344.079 59.9121L339.583 46.6636L335.181 59.9146L344.079 59.9121Z" fill="#170F0B"/>
<path d="M387.917 36.8704V43.9369H378.283V73.1632H369.452V43.9369H359.817V36.8704H387.917Z" fill="#170F0B"/>
<path d="M404.619 51.3223C408.639 50.5986 410.65 48.5128 410.65 45.1403C410.592 42.5634 410.404 39.991 410.087 37.4329C409.685 33.578 409.524 30.7684 409.524 29.0822C409.449 27.8899 409.624 26.6951 410.039 25.5748C410.455 24.4546 411.1 23.4339 411.934 22.5785C412.803 21.7975 413.818 21.1966 414.92 20.8105C416.023 20.4245 417.191 20.2609 418.357 20.3294H421.81V24.986H419.4C418.159 24.8858 416.925 25.2583 415.947 26.0289C415.546 26.4887 415.24 27.0235 415.047 27.6025C414.854 28.1814 414.779 28.7928 414.824 29.4013C414.824 30.5247 414.904 31.9696 415.075 33.6559C415.246 35.3421 415.327 36.4654 415.397 37.0283C415.799 40.7978 415.957 43.532 415.957 45.2986C416.017 47.1686 415.452 49.0052 414.351 50.5181C413.134 52.0014 411.424 52.9984 409.534 53.3277V53.4081C411.424 53.7375 413.134 54.7344 414.351 56.2176C415.441 57.7363 416.004 59.5689 415.957 61.4372C415.957 63.1963 415.796 65.9329 415.397 69.7075C415.397 70.2704 415.236 71.3937 415.075 73.0799C414.914 74.7662 414.824 76.1307 414.824 77.3344C414.764 77.9439 414.833 78.5593 415.026 79.1404C415.22 79.7214 415.534 80.2552 415.947 80.7069C416.919 81.4893 418.157 81.8632 419.4 81.7498H421.81V86.4064H418.277C415.923 86.5305 413.615 85.7224 411.853 84.1573C411.019 83.3019 410.374 82.2812 409.959 81.161C409.544 80.0407 409.368 78.8459 409.444 77.6536C409.444 75.8945 409.604 73.1578 410.006 69.3029C410.323 66.7448 410.511 64.1725 410.569 61.5955C410.569 58.223 408.559 56.1347 404.538 55.4135V51.3198L404.619 51.3223Z" fill="#E72125"/>
<path d="M598.842 61.7591C598.9 64.336 599.088 66.9084 599.405 69.4665C599.807 73.3214 599.968 76.131 599.968 77.8172C600.044 79.0093 599.869 80.204 599.454 81.3243C599.04 82.4445 598.395 83.4653 597.561 84.3208C596.692 85.1019 595.677 85.7028 594.575 86.0889C593.472 86.4749 592.304 86.6385 591.138 86.57H587.682V81.9134H590.092C591.334 82.0136 592.567 81.6411 593.545 80.8705C593.946 80.4108 594.252 79.8759 594.445 79.297C594.638 78.718 594.714 78.1066 594.669 77.498C594.669 76.3747 594.588 74.9298 594.417 73.2435C594.246 71.5573 594.166 70.434 594.095 69.8711C593.693 66.1015 593.533 63.3674 593.533 61.6007C593.447 59.7397 593.983 57.9032 595.058 56.3812C596.253 54.8715 597.973 53.8682 599.875 53.5717V53.4913C597.985 53.1617 596.276 52.1648 595.058 50.6817C593.983 49.1598 593.447 47.3232 593.533 45.4622C593.533 43.7031 593.693 40.9664 594.095 37.1919C594.095 36.629 594.256 35.5057 594.417 33.8194C594.578 32.1332 594.669 30.7687 594.669 29.5649C594.729 28.9554 594.66 28.3401 594.466 27.759C594.273 27.1779 593.959 26.6441 593.545 26.1925C592.573 25.4099 591.335 25.0359 590.092 25.1496H587.682V20.4905H591.135C593.489 20.3664 595.796 21.1744 597.558 22.7396C598.392 23.5951 599.037 24.616 599.452 25.7362C599.866 26.8564 600.041 28.0511 599.966 29.2433C599.966 31.0024 599.805 33.739 599.403 37.594C599.086 40.152 598.898 42.7244 598.84 45.3014C598.84 48.6738 600.851 50.7622 604.871 51.4834V55.6575C600.851 56.3008 598.842 58.3866 598.842 61.7591Z" fill="#E72125"/>
<path d="M434.165 69.7075C432.507 68.9984 431.067 67.8624 429.991 66.4154C428.965 65.0729 428.376 63.4472 428.305 61.7588H434.406C434.444 62.3687 434.622 62.9616 434.927 63.4909C435.233 64.0203 435.656 64.4717 436.166 64.8096C437.302 65.6464 438.69 66.0709 440.101 66.0133C441.455 66.1027 442.803 65.7661 443.956 65.0509C444.374 64.7838 444.718 64.416 444.956 63.9813C445.194 63.5465 445.32 63.0588 445.32 62.563C445.33 62.0564 445.19 61.5584 444.919 61.1304C444.648 60.7025 444.257 60.3635 443.795 60.1555C442.242 59.4515 440.63 58.8871 438.978 58.4693C437.201 58.0266 435.457 57.4632 433.758 56.7831C432.402 56.2446 431.211 55.3589 430.305 54.2148C429.296 52.9403 428.782 51.343 428.86 49.719C428.87 48.2196 429.347 46.7605 430.225 45.5449C431.197 44.2042 432.535 43.1727 434.08 42.5745C435.91 41.8102 437.877 41.4279 439.86 41.4512C442.696 41.3111 445.488 42.194 447.728 43.9391C448.718 44.7479 449.518 45.7637 450.073 46.9151C450.628 48.0665 450.924 49.3256 450.94 50.6036H445.079C445.054 50.0164 444.905 49.4412 444.642 48.9155C444.379 48.3898 444.008 47.9255 443.554 47.5528C442.458 46.7677 441.131 46.3722 439.784 46.4295C438.545 46.3627 437.314 46.67 436.251 47.3115C435.87 47.567 435.561 47.9146 435.35 48.3218C435.14 48.7291 435.035 49.1828 435.047 49.6411C435.041 50.0004 435.11 50.3571 435.248 50.6888C435.387 51.0204 435.592 51.3199 435.851 51.5686C436.449 52.0796 437.129 52.4866 437.862 52.7723C438.666 53.094 439.789 53.4157 441.395 53.8956C443.12 54.3351 444.81 54.8986 446.454 55.5818C447.789 56.1189 448.975 56.9727 449.907 58.0697C450.908 59.3224 451.446 60.8817 451.432 62.4851C451.436 64.0363 450.959 65.5507 450.067 66.82C449.11 68.1399 447.805 69.1682 446.298 69.7904C444.473 70.5705 442.503 70.9534 440.518 70.9137C438.338 70.9815 436.169 70.5697 434.165 69.7075Z" fill="#170F0B"/>
<path d="M465.557 46.7463V62.4828C465.485 63.324 465.745 64.16 466.281 64.8123C467.015 65.3701 467.933 65.6287 468.849 65.5361H472.463V70.4339H467.804C465.615 70.5626 463.452 69.9078 461.703 68.5869C460.934 67.7961 460.348 66.8459 459.987 65.8037C459.626 64.7614 459.499 63.6526 459.614 62.5556V46.7388H456.244V41.9213H459.617V34.8623H465.557V41.9289H472.463V46.7463H465.557Z" fill="#170F0B"/>
<path d="M488.601 42.7304C490.156 41.9008 491.898 41.4862 493.66 41.5266V47.6282H492.135C491.19 47.5441 490.239 47.657 489.34 47.9598C488.442 48.2626 487.616 48.7488 486.915 49.3873C485.553 51.1128 484.922 53.3032 485.156 55.4889V70.5041H479.288V41.9287H485.148V46.0224C485.986 44.637 487.178 43.5004 488.601 42.7304Z" fill="#170F0B"/>
<path d="M500.643 37.1112C500.051 36.5019 499.687 35.7065 499.614 34.8597C499.541 34.013 499.763 33.167 500.242 32.4652C500.722 31.7633 501.429 31.2488 502.244 31.0088C503.06 30.7688 503.933 30.8181 504.716 31.1483C505.499 31.4785 506.144 32.0693 506.541 32.8207C506.939 33.572 507.064 34.4375 506.896 35.2707C506.728 36.1039 506.277 36.8533 505.62 37.3921C504.963 37.9309 504.14 38.2259 503.29 38.227C502.307 38.166 501.373 37.7725 500.643 37.1112ZM506.263 41.9287V70.4312H500.402V41.9287H506.263Z" fill="#170F0B"/>
<path d="M535.733 42.8911C537.475 43.8445 538.92 45.2613 539.907 46.9848C540.946 49.0218 541.47 51.2825 541.433 53.5689V70.3508H535.492V54.4535C535.638 52.3234 534.946 50.2205 533.564 48.5931C532.133 47.3019 530.274 46.5872 528.346 46.5872C526.418 46.5872 524.559 47.3019 523.128 48.5931C521.746 50.2205 521.054 52.3234 521.2 54.4535V70.3508H515.34V41.9286H521.2V45.2207C522.178 44.0097 523.45 43.07 524.894 42.4916C526.628 41.7928 528.489 41.4674 530.357 41.5367C532.224 41.606 534.056 42.0684 535.733 42.8936V42.8911Z" fill="#170F0B"/>
<path d="M567.447 42.811C569.015 43.5963 570.388 44.7208 571.468 46.103V41.9289H577.408V70.8285C577.461 73.264 576.88 75.6714 575.722 77.8147C574.634 79.8661 572.956 81.5442 570.905 82.6321C568.616 83.8697 566.039 84.4767 563.439 84.3912C560.018 84.53 556.643 83.5739 553.804 81.6621C552.576 80.8324 551.549 79.7385 550.799 78.4605C550.049 77.1825 549.594 75.7529 549.469 74.2764H555.329C555.824 75.7906 556.851 77.0743 558.219 77.8901C559.799 78.8193 561.606 79.2917 563.439 79.2546C564.499 79.3049 565.558 79.1384 566.552 78.7656C567.546 78.3927 568.453 77.8212 569.218 77.0859C569.989 76.2295 570.578 75.2261 570.951 74.1361C571.324 73.0461 571.472 71.8919 571.387 70.7431V66.0061C570.325 67.4537 568.918 68.6129 567.293 69.3785C565.507 70.299 563.523 70.7675 561.514 70.7431C559.114 70.7505 556.757 70.1125 554.688 68.896C552.607 67.6038 550.915 65.7724 549.79 63.5961C548.571 61.2138 547.966 58.5643 548.031 55.8887C547.966 53.2388 548.571 50.6152 549.79 48.2617C550.92 46.1312 552.614 44.3531 554.688 43.1226C556.757 41.9061 559.114 41.2681 561.514 41.2755C563.571 41.4037 565.585 41.9249 567.447 42.811ZM570.256 51.0813C569.534 49.6911 568.417 48.5457 567.045 47.7892C565.747 47.0539 564.282 46.6669 562.79 46.666C561.3 46.677 559.837 47.0633 558.536 47.7892C557.181 48.5687 556.07 49.7083 555.324 51.0813C554.495 52.636 554.08 54.3783 554.12 56.14C554.08 57.9273 554.494 59.6957 555.324 61.2791C556.044 62.6917 557.16 63.8636 558.536 64.6514C559.797 65.4031 561.242 65.7919 562.71 65.7749C564.2 65.7638 565.663 65.3774 566.964 64.6514C568.321 63.84 569.432 62.6742 570.176 61.2791C571.005 59.6955 571.419 57.9272 571.38 56.14C571.445 54.3869 571.058 52.6466 570.256 51.0863V51.0813Z" fill="#170F0B"/>
<path d="M176.107 123.936C175.183 123.936 174.325 123.774 173.533 123.45C172.741 123.114 172.045 122.652 171.445 122.064C170.857 121.464 170.401 120.768 170.077 119.976C169.765 119.184 169.609 118.332 169.609 117.42C169.609 116.508 169.765 115.656 170.077 114.864C170.401 114.072 170.857 113.382 171.445 112.794C172.045 112.206 172.735 111.744 173.515 111.408C174.307 111.072 175.171 110.904 176.107 110.904C177.115 110.904 178.003 111.072 178.771 111.408C179.539 111.732 180.217 112.182 180.805 112.758L179.149 114.414C178.801 114.03 178.375 113.73 177.871 113.514C177.367 113.298 176.779 113.19 176.107 113.19C175.519 113.19 174.979 113.292 174.487 113.496C174.007 113.688 173.587 113.976 173.227 114.36C172.867 114.732 172.591 115.182 172.399 115.71C172.207 116.226 172.111 116.796 172.111 117.42C172.111 118.056 172.207 118.632 172.399 119.148C172.591 119.664 172.867 120.114 173.227 120.498C173.587 120.87 174.007 121.158 174.487 121.362C174.979 121.566 175.519 121.668 176.107 121.668C176.815 121.668 177.421 121.56 177.925 121.344C178.441 121.128 178.873 120.822 179.221 120.426L180.877 122.082C180.289 122.67 179.605 123.126 178.825 123.45C178.045 123.774 177.139 123.936 176.107 123.936ZM188.171 123.954C187.247 123.954 186.383 123.786 185.579 123.45C184.787 123.114 184.091 122.652 183.491 122.064C182.903 121.464 182.441 120.768 182.105 119.976C181.769 119.172 181.601 118.314 181.601 117.402C181.601 116.49 181.763 115.644 182.087 114.864C182.423 114.072 182.885 113.382 183.473 112.794C184.073 112.194 184.769 111.732 185.561 111.408C186.353 111.072 187.211 110.904 188.135 110.904C189.071 110.904 189.935 111.072 190.727 111.408C191.519 111.732 192.209 112.194 192.797 112.794C193.397 113.382 193.865 114.072 194.201 114.864C194.537 115.656 194.705 116.508 194.705 117.42C194.705 118.332 194.537 119.184 194.201 119.976C193.865 120.768 193.397 121.464 192.797 122.064C192.209 122.652 191.519 123.114 190.727 123.45C189.947 123.786 189.095 123.954 188.171 123.954ZM188.135 121.668C188.951 121.668 189.659 121.488 190.259 121.128C190.859 120.768 191.327 120.27 191.663 119.634C192.011 118.998 192.185 118.254 192.185 117.402C192.185 116.778 192.089 116.208 191.897 115.692C191.705 115.176 191.429 114.732 191.069 114.36C190.709 113.976 190.283 113.682 189.791 113.478C189.299 113.274 188.747 113.172 188.135 113.172C187.343 113.172 186.641 113.352 186.029 113.712C185.429 114.06 184.955 114.552 184.607 115.188C184.271 115.824 184.103 116.562 184.103 117.402C184.103 118.038 184.199 118.62 184.391 119.148C184.595 119.676 184.871 120.126 185.219 120.498C185.579 120.87 186.005 121.158 186.497 121.362C187.001 121.566 187.547 121.668 188.135 121.668ZM196.826 123.756V111.102H198.536L199.274 113.55V123.756H196.826ZM205.574 123.756L198.068 114.036L198.536 111.102L206.042 120.822L205.574 123.756ZM205.574 123.756L204.872 121.38V111.102H207.338V123.756H205.574ZM215.952 123.936C215.028 123.936 214.17 123.774 213.378 123.45C212.586 123.114 211.89 122.652 211.29 122.064C210.702 121.464 210.246 120.768 209.922 119.976C209.61 119.184 209.454 118.332 209.454 117.42C209.454 116.508 209.61 115.656 209.922 114.864C210.246 114.072 210.702 113.382 211.29 112.794C211.89 112.206 212.58 111.744 213.36 111.408C214.152 111.072 215.016 110.904 215.952 110.904C216.96 110.904 217.848 111.072 218.616 111.408C219.384 111.732 220.062 112.182 220.65 112.758L218.994 114.414C218.646 114.03 218.22 113.73 217.716 113.514C217.212 113.298 216.624 113.19 215.952 113.19C215.364 113.19 214.824 113.292 214.332 113.496C213.852 113.688 213.432 113.976 213.072 114.36C212.712 114.732 212.436 115.182 212.244 115.71C212.052 116.226 211.956 116.796 211.956 117.42C211.956 118.056 212.052 118.632 212.244 119.148C212.436 119.664 212.712 120.114 213.072 120.498C213.432 120.87 213.852 121.158 214.332 121.362C214.824 121.566 215.364 121.668 215.952 121.668C216.66 121.668 217.266 121.56 217.77 121.344C218.286 121.128 218.718 120.822 219.066 120.426L220.722 122.082C220.134 122.67 219.45 123.126 218.67 123.45C217.89 123.774 216.984 123.936 215.952 123.936ZM221.351 123.756L226.445 111.102H228.443L233.519 123.756H230.909L226.985 113.37H227.885L223.907 123.756H221.351ZM224.051 121.398V119.346H230.855V121.398H224.051ZM236.832 123.756V111.372H239.298V123.756H236.832ZM232.8 113.28V111.102H243.33V113.28H232.8ZM245.2 123.756V111.102H247.648V123.756H245.2ZM247 123.756V121.596H254.002V123.756H247ZM247 118.338V116.25H253.372V118.338H247ZM247 113.262V111.102H253.912V113.262H247ZM256.208 123.756V111.102H257.918L258.656 113.55V123.756H256.208ZM264.956 123.756L257.45 114.036L257.918 111.102L265.424 120.822L264.956 123.756ZM264.956 123.756L264.254 121.38V111.102H266.72V123.756H264.956ZM268.53 123.756L273.624 111.102H275.622L280.698 123.756H278.088L274.164 113.37H275.064L271.086 123.756H268.53ZM271.23 121.398V119.346H278.034V121.398H271.23ZM284.011 123.756V111.372H286.477V123.756H284.011ZM279.979 113.28V111.102H290.509V113.28H279.979ZM292.379 123.756V111.102H294.827V123.756H292.379ZM297.604 123.756V111.102H299.314L300.052 113.55V123.756H297.604ZM306.352 123.756L298.846 114.036L299.314 111.102L306.82 120.822L306.352 123.756ZM306.352 123.756L305.65 121.38V111.102H308.116V123.756H306.352ZM316.712 123.936C315.812 123.936 314.966 123.774 314.174 123.45C313.394 123.114 312.704 122.646 312.104 122.046C311.516 121.446 311.054 120.756 310.718 119.976C310.394 119.184 310.232 118.332 310.232 117.42C310.232 116.496 310.4 115.644 310.736 114.864C311.072 114.072 311.54 113.382 312.14 112.794C312.74 112.194 313.442 111.732 314.246 111.408C315.05 111.072 315.92 110.904 316.856 110.904C317.9 110.904 318.86 111.102 319.736 111.498C320.612 111.882 321.338 112.428 321.914 113.136L320.258 114.792C319.862 114.276 319.37 113.88 318.782 113.604C318.194 113.328 317.546 113.19 316.838 113.19C316.034 113.19 315.32 113.37 314.696 113.73C314.084 114.078 313.604 114.57 313.256 115.206C312.908 115.83 312.734 116.562 312.734 117.402C312.734 118.242 312.902 118.986 313.238 119.634C313.586 120.27 314.054 120.768 314.642 121.128C315.242 121.488 315.926 121.668 316.694 121.668C317.486 121.668 318.164 121.524 318.728 121.236C319.292 120.936 319.724 120.504 320.024 119.94C320.324 119.364 320.474 118.662 320.474 117.834L322.076 118.932L316.55 118.878V116.754H322.994V117.096C322.994 118.608 322.724 119.874 322.184 120.894C321.644 121.902 320.9 122.664 319.952 123.18C319.016 123.684 317.936 123.936 316.712 123.936ZM332.797 123.756L327.811 111.102H330.457L334.309 121.344H333.283L337.171 111.102H339.781L334.741 123.756H332.797ZM341.619 123.756V111.102H344.067V123.756H341.619ZM350.27 123.936C349.25 123.936 348.374 123.762 347.642 123.414C346.922 123.066 346.268 122.544 345.68 121.848L347.3 120.228C347.672 120.72 348.104 121.104 348.596 121.38C349.088 121.644 349.688 121.776 350.396 121.776C351.032 121.776 351.536 121.65 351.908 121.398C352.292 121.146 352.484 120.798 352.484 120.354C352.484 119.97 352.376 119.658 352.16 119.418C351.944 119.178 351.656 118.974 351.296 118.806C350.948 118.638 350.558 118.488 350.126 118.356C349.706 118.212 349.28 118.05 348.848 117.87C348.428 117.69 348.038 117.468 347.678 117.204C347.33 116.928 347.048 116.58 346.832 116.16C346.616 115.728 346.508 115.188 346.508 114.54C346.508 113.772 346.694 113.118 347.066 112.578C347.438 112.038 347.948 111.624 348.596 111.336C349.244 111.048 349.976 110.904 350.792 110.904C351.656 110.904 352.436 111.066 353.132 111.39C353.828 111.714 354.398 112.134 354.842 112.65L353.222 114.27C352.85 113.862 352.466 113.562 352.07 113.37C351.686 113.178 351.248 113.082 350.756 113.082C350.192 113.082 349.748 113.19 349.424 113.406C349.1 113.622 348.938 113.934 348.938 114.342C348.938 114.69 349.046 114.972 349.262 115.188C349.478 115.404 349.76 115.59 350.108 115.746C350.468 115.902 350.858 116.052 351.278 116.196C351.71 116.34 352.136 116.502 352.556 116.682C352.988 116.862 353.378 117.096 353.726 117.384C354.086 117.672 354.374 118.044 354.59 118.5C354.806 118.944 354.914 119.496 354.914 120.156C354.914 121.332 354.5 122.256 353.672 122.928C352.844 123.6 351.71 123.936 350.27 123.936ZM357.026 123.756V111.102H359.474V123.756H357.026ZM368.172 123.954C367.248 123.954 366.384 123.786 365.58 123.45C364.788 123.114 364.092 122.652 363.492 122.064C362.904 121.464 362.442 120.768 362.106 119.976C361.77 119.172 361.602 118.314 361.602 117.402C361.602 116.49 361.764 115.644 362.088 114.864C362.424 114.072 362.886 113.382 363.474 112.794C364.074 112.194 364.77 111.732 365.562 111.408C366.354 111.072 367.212 110.904 368.136 110.904C369.072 110.904 369.936 111.072 370.728 111.408C371.52 111.732 372.21 112.194 372.798 112.794C373.398 113.382 373.866 114.072 374.202 114.864C374.538 115.656 374.706 116.508 374.706 117.42C374.706 118.332 374.538 119.184 374.202 119.976C373.866 120.768 373.398 121.464 372.798 122.064C372.21 122.652 371.52 123.114 370.728 123.45C369.948 123.786 369.096 123.954 368.172 123.954ZM368.136 121.668C368.952 121.668 369.66 121.488 370.26 121.128C370.86 120.768 371.328 120.27 371.664 119.634C372.012 118.998 372.186 118.254 372.186 117.402C372.186 116.778 372.09 116.208 371.898 115.692C371.706 115.176 371.43 114.732 371.07 114.36C370.71 113.976 370.284 113.682 369.792 113.478C369.3 113.274 368.748 113.172 368.136 113.172C367.344 113.172 366.642 113.352 366.03 113.712C365.43 114.06 364.956 114.552 364.608 115.188C364.272 115.824 364.104 116.562 364.104 117.402C364.104 118.038 364.2 118.62 364.392 119.148C364.596 119.676 364.872 120.126 365.22 120.498C365.58 120.87 366.006 121.158 366.498 121.362C367.002 121.566 367.548 121.668 368.136 121.668ZM376.827 123.756V111.102H378.537L379.275 113.55V123.756H376.827ZM385.575 123.756L378.069 114.036L378.537 111.102L386.043 120.822L385.575 123.756ZM385.575 123.756L384.873 121.38V111.102H387.339V123.756H385.575ZM393.511 123.936C392.491 123.936 391.615 123.762 390.883 123.414C390.163 123.066 389.509 122.544 388.921 121.848L390.541 120.228C390.913 120.72 391.345 121.104 391.837 121.38C392.329 121.644 392.929 121.776 393.637 121.776C394.273 121.776 394.777 121.65 395.149 121.398C395.533 121.146 395.725 120.798 395.725 120.354C395.725 119.97 395.617 119.658 395.401 119.418C395.185 119.178 394.897 118.974 394.537 118.806C394.189 118.638 393.799 118.488 393.367 118.356C392.947 118.212 392.521 118.05 392.089 117.87C391.669 117.69 391.279 117.468 390.919 117.204C390.571 116.928 390.289 116.58 390.073 116.16C389.857 115.728 389.749 115.188 389.749 114.54C389.749 113.772 389.935 113.118 390.307 112.578C390.679 112.038 391.189 111.624 391.837 111.336C392.485 111.048 393.217 110.904 394.033 110.904C394.897 110.904 395.677 111.066 396.373 111.39C397.069 111.714 397.639 112.134 398.083 112.65L396.463 114.27C396.091 113.862 395.707 113.562 395.311 113.37C394.927 113.178 394.489 113.082 393.997 113.082C393.433 113.082 392.989 113.19 392.665 113.406C392.341 113.622 392.179 113.934 392.179 114.342C392.179 114.69 392.287 114.972 392.503 115.188C392.719 115.404 393.001 115.59 393.349 115.746C393.709 115.902 394.099 116.052 394.519 116.196C394.951 116.34 395.377 116.502 395.797 116.682C396.229 116.862 396.619 117.096 396.967 117.384C397.327 117.672 397.615 118.044 397.831 118.5C398.047 118.944 398.155 119.496 398.155 120.156C398.155 121.332 397.741 122.256 396.913 122.928C396.085 123.6 394.951 123.936 393.511 123.936ZM407.167 123.756L403.063 111.102H405.475L408.517 120.84H407.707L410.695 111.102H412.513L415.501 120.84H414.673L417.733 111.102H420.145L416.023 123.756H414.205L411.199 114.036H411.991L409.003 123.756H407.167ZM422.002 123.756V111.102H424.45V123.756H422.002ZM430.359 123.756V111.372H432.825V123.756H430.359ZM426.327 113.28V111.102H436.857V113.28H426.327ZM438.727 123.756V111.102H441.175V123.756H438.727ZM446.665 123.756V111.102H449.113V123.756H446.665ZM440.275 118.302V116.142H447.349V118.302H440.275ZM457.25 123.756V121.578H460.472C461.288 121.578 462.002 121.41 462.614 121.074C463.226 120.726 463.7 120.24 464.036 119.616C464.384 118.992 464.558 118.254 464.558 117.402C464.558 116.574 464.384 115.854 464.036 115.242C463.688 114.618 463.208 114.138 462.596 113.802C461.984 113.454 461.276 113.28 460.472 113.28H457.196V111.102H460.508C461.444 111.102 462.308 111.258 463.1 111.57C463.904 111.882 464.6 112.326 465.188 112.902C465.788 113.466 466.25 114.132 466.574 114.9C466.91 115.668 467.078 116.508 467.078 117.42C467.078 118.332 466.91 119.178 466.574 119.958C466.25 120.726 465.794 121.398 465.206 121.974C464.618 122.538 463.922 122.976 463.118 123.288C462.326 123.6 461.468 123.756 460.544 123.756H457.25ZM455.576 123.756V111.102H458.024V123.756H455.576ZM469.203 123.756V111.102H471.651V123.756H469.203ZM480.278 123.936C479.378 123.936 478.532 123.774 477.74 123.45C476.96 123.114 476.27 122.646 475.67 122.046C475.082 121.446 474.62 120.756 474.284 119.976C473.96 119.184 473.798 118.332 473.798 117.42C473.798 116.496 473.966 115.644 474.302 114.864C474.638 114.072 475.106 113.382 475.706 112.794C476.306 112.194 477.008 111.732 477.812 111.408C478.616 111.072 479.486 110.904 480.422 110.904C481.466 110.904 482.426 111.102 483.302 111.498C484.178 111.882 484.904 112.428 485.48 113.136L483.824 114.792C483.428 114.276 482.936 113.88 482.348 113.604C481.76 113.328 481.112 113.19 480.404 113.19C479.6 113.19 478.886 113.37 478.262 113.73C477.65 114.078 477.17 114.57 476.822 115.206C476.474 115.83 476.3 116.562 476.3 117.402C476.3 118.242 476.468 118.986 476.804 119.634C477.152 120.27 477.62 120.768 478.208 121.128C478.808 121.488 479.492 121.668 480.26 121.668C481.052 121.668 481.73 121.524 482.294 121.236C482.858 120.936 483.29 120.504 483.59 119.94C483.89 119.364 484.04 118.662 484.04 117.834L485.642 118.932L480.116 118.878V116.754H486.56V117.096C486.56 118.608 486.29 119.874 485.75 120.894C485.21 121.902 484.466 122.664 483.518 123.18C482.582 123.684 481.502 123.936 480.278 123.936ZM488.618 123.756V111.102H491.066V123.756H488.618ZM496.974 123.756V111.372H499.44V123.756H496.974ZM492.942 113.28V111.102H503.472V113.28H492.942ZM502.772 123.756L507.866 111.102H509.864L514.94 123.756H512.33L508.406 113.37H509.306L505.328 123.756H502.772ZM505.472 121.398V119.346H512.276V121.398H505.472ZM516.615 123.756V111.102H519.063V123.756H516.615ZM518.415 123.756V121.578H524.859V123.756H518.415ZM532.151 118.464V116.556H535.085C535.685 116.556 536.147 116.406 536.471 116.106C536.807 115.794 536.975 115.368 536.975 114.828C536.975 114.336 536.807 113.928 536.471 113.604C536.147 113.268 535.685 113.1 535.085 113.1H532.151V111.102H535.301C536.117 111.102 536.831 111.264 537.443 111.588C538.067 111.9 538.547 112.332 538.883 112.884C539.231 113.436 539.405 114.072 539.405 114.792C539.405 115.536 539.231 116.184 538.883 116.736C538.547 117.276 538.067 117.702 537.443 118.014C536.819 118.314 536.093 118.464 535.265 118.464H532.151ZM530.351 123.756V111.102H532.799V123.756H530.351ZM537.263 123.756L533.087 118.284L535.337 117.582L540.233 123.756H537.263ZM541.799 123.756V111.102H544.247V123.756H541.799ZM543.599 123.756V121.596H550.601V123.756H543.599ZM543.599 118.338V116.25H549.971V118.338H543.599ZM543.599 113.262V111.102H550.511V113.262H543.599ZM551.871 123.756L556.965 111.102H558.963L564.039 123.756H561.429L557.505 113.37H558.405L554.427 123.756H551.871ZM554.571 121.398V119.346H561.375V121.398H554.571ZM565.714 123.756V111.102H568.162V123.756H565.714ZM567.514 123.756V121.578H573.958V123.756H567.514ZM575.896 123.756V111.102H578.344V123.756H575.896ZM584.253 123.756V111.372H586.719V123.756H584.253ZM580.221 113.28V111.102H590.751V113.28H580.221ZM595.842 118.878L590.946 111.102H593.772L597.57 117.33H595.95L599.748 111.102H602.538L597.588 118.878H595.842ZM595.518 123.756V117.564H597.984V123.756H595.518Z" fill="url(#paint8_linear_7985_6373)"/>
</g>
<defs>
<linearGradient id="paint0_linear_7985_6373" x1="49.9616" y1="84.0399" x2="9.70454" y2="57.3867" gradientUnits="userSpaceOnUse">
<stop offset="0.037" stop-color="#E72125"/>
<stop offset="0.217" stop-color="#DE2124"/>
<stop offset="0.515" stop-color="#C41F22"/>
<stop offset="0.894" stop-color="#9B1E1E"/>
<stop offset="1" stop-color="#8E1D1D"/>
</linearGradient>
<linearGradient id="paint1_linear_7985_6373" x1="33.1596" y1="53.7435" x2="54.4289" y2="12.7368" gradientUnits="userSpaceOnUse">
<stop offset="0.037" stop-color="#E72125"/>
<stop offset="0.217" stop-color="#DE2124"/>
<stop offset="0.515" stop-color="#C41F22"/>
<stop offset="0.894" stop-color="#9B1E1E"/>
<stop offset="1" stop-color="#8E1D1D"/>
</linearGradient>
<linearGradient id="paint2_linear_7985_6373" x1="236.194" y1="380.922" x2="239.213" y2="536.221" gradientUnits="userSpaceOnUse">
<stop offset="0.078" stop-color="#0F1029"/>
<stop offset="0.178" stop-color="#141938"/>
<stop offset="1" stop-color="#3D62AD"/>
</linearGradient>
<linearGradient id="paint3_linear_7985_6373" x1="50.8649" y1="14.7238" x2="103.339" y2="74.2584" gradientUnits="userSpaceOnUse">
<stop offset="0.037" stop-color="#E72125"/>
<stop offset="1" stop-color="#8E1D1D"/>
</linearGradient>
<linearGradient id="paint4_linear_7985_6373" x1="119.398" y1="79.7062" x2="94.1397" y2="43.4185" gradientUnits="userSpaceOnUse">
<stop stop-color="#2C3894"/>
<stop offset="1" stop-color="#54A3DA"/>
</linearGradient>
<linearGradient id="paint5_linear_7985_6373" x1="88.0818" y1="126.652" x2="112.929" y2="61.9516" gradientUnits="userSpaceOnUse">
<stop stop-color="#2C3894"/>
<stop offset="0.062" stop-color="#31469D"/>
<stop offset="0.238" stop-color="#3E67B3"/>
<stop offset="0.418" stop-color="#4781C4"/>
<stop offset="0.602" stop-color="#4E94D0"/>
<stop offset="0.793" stop-color="#539FD8"/>
<stop offset="1" stop-color="#54A3DA"/>
</linearGradient>
<linearGradient id="paint6_linear_7985_6373" x1="547.761" y1="-962.11" x2="550.779" y2="-806.82" gradientUnits="userSpaceOnUse">
<stop offset="0.078" stop-color="#0F1029"/>
<stop offset="0.178" stop-color="#141938"/>
<stop offset="1" stop-color="#3D62AD"/>
</linearGradient>
<linearGradient id="paint7_linear_7985_6373" x1="4.20524" y1="120.744" x2="62.5811" y2="174.446" gradientUnits="userSpaceOnUse">
<stop stop-color="#2C3894"/>
<stop offset="0.062" stop-color="#31469D"/>
<stop offset="0.238" stop-color="#3E67B3"/>
<stop offset="0.418" stop-color="#4781C4"/>
<stop offset="0.602" stop-color="#4E94D0"/>
<stop offset="0.793" stop-color="#539FD8"/>
<stop offset="1" stop-color="#54A3DA"/>
</linearGradient>
<linearGradient id="paint8_linear_7985_6373" x1="284.342" y1="110.868" x2="284.342" y2="128.756" gradientUnits="userSpaceOnUse">
<stop offset="0.037" stop-color="#E72125"/>
<stop offset="1" stop-color="#8E1D1D"/>
</linearGradient>
<clipPath id="clip0_7985_6373">
<rect width="604" height="148" fill="white" transform="translate(0.943359 0.314209)"/>
</clipPath>
</defs>
</svg>
